<svg width="144" height="144" viewBox="0 0 144 144" fill="none" xmlns="http://www.w3.org/2000/svg">
<g filter="url(#filter0_d)">
<circle cx="71.5327" cy="70.5327" r="69.5327" fill="white"/>
<circle cx="71.5327" cy="70.5327" r="69.0327" stroke="#FBFBFB"/>
</g>
<g clip-path="url(#clip0)">
<rect width="86.1308" height="86.1308" transform="translate(28.0187 27.0187)" fill="white"/>
<path d="M48.3738 49.729C48.3738 62.2521 58.561 72.4393 71.0841 72.4393C83.6072 72.4393 93.7944 62.2521 93.7944 49.729C93.7944 37.2059 83.6072 27.0187 71.0841 27.0187C58.561 27.0187 48.3738 37.2059 48.3738 49.729Z" fill="#E6E6E6"/>
<path d="M93.7944 49.729C93.7944 37.2059 83.6072 27.0187 71.0841 27.0187V72.4393C83.6072 72.4393 93.7944 62.2521 93.7944 49.729Z" fill="#DADADA"/>
<path d="M33.2336 110.626C33.2336 112.021 34.3623 113.15 35.757 113.15H106.411C107.806 113.15 108.935 112.021 108.935 110.626C108.935 92.5387 94.2183 77.486 76.1308 77.486H66.0374C47.9499 77.486 33.2336 92.5387 33.2336 110.626Z" fill="#E6E6E6"/>
<path d="M76.1308 77.486H71.0841V113.15H106.411C107.806 113.15 108.935 112.021 108.935 110.626C108.935 92.5387 94.2183 77.486 76.1308 77.486Z" fill="#DADADA"/>
</g>
<defs>
<filter id="filter0_d" x="0" y="0" width="143.065" height="143.065" filterUnits="userSpaceOnUse" color-interpolation-filters="sRGB">
<feFlood flood-opacity="0" result="BackgroundImageFix"/>
<feColorMatrix in="SourceAlpha" type="matrix" values="0 0 0 0 0 0 0 0 0 0 0 0 0 0 0 0 0 0 127 0" result="hardAlpha"/>
<feOffset dy="1"/>
<feGaussianBlur stdDeviation="1"/>
<feColorMatrix type="matrix" values="0 0 0 0 0 0 0 0 0 0 0 0 0 0 0 0 0 0 0.25 0"/>
<feBlend mode="normal" in2="BackgroundImageFix" result="effect1_dropShadow"/>
<feBlend mode="normal" in="SourceGraphic" in2="effect1_dropShadow" result="shape"/>
</filter>
<clipPath id="clip0">
<rect width="86.1308" height="86.1308" fill="white" transform="translate(28.0187 27.0187)"/>
</clipPath>
</defs>
</svg>
