<svg width="60" height="60" viewBox="0 0 60 60" fill="none" xmlns="http://www.w3.org/2000/svg">
<circle cx="30" cy="30" r="30" fill="#DB171E"/>
<path d="M23.5 20C19.3633 20 16 23.4023 16 27.5C16 28.9297 16.6484 30.168 17.25 31.0625C17.8516 31.957 18.4688 32.5312 18.4688 32.5312L29.2812 43.375L30 44.0938L30.7188 43.375L41.5312 32.5312C41.5312 32.5312 44 30.3555 44 27.5C44 23.4023 40.6367 20 36.5 20C33.0664 20 30.8555 22.0664 30 22.9375C29.1445 22.0664 26.9336 20 23.5 20ZM23.5 22C26.4883 22 29.25 24.9062 29.25 24.9062L30 25.75L30.75 24.9062C30.75 24.9062 33.5117 22 36.5 22C39.543 22 42 24.4961 42 27.5C42 29.043 40.125 31.125 40.125 31.125L30 41.25L19.875 31.125C19.875 31.125 19.3906 30.6602 18.9062 29.9375C18.4219 29.2148 18 28.2734 18 27.5C18 24.4961 20.457 22 23.5 22Z" fill="white"/>
</svg>
