<svg width="24" height="24" viewBox="0 0 24 24" fill="none" xmlns="http://www.w3.org/2000/svg">
<path d="M20 1.25H11C9.48122 1.25 8.25 2.48122 8.25 4V9.38461C8.25 10.9034 9.48122 12.1346 11 12.1346H14C14.9509 12.1346 15.8758 12.4919 16.5787 13.1407L18.4892 14.9042C18.5259 14.9382 18.5514 14.9447 18.5675 14.947C18.59 14.9502 18.622 14.9477 18.6569 14.9324C18.6919 14.9171 18.7154 14.8953 18.7283 14.8766C18.7375 14.8632 18.75 14.84 18.75 14.79C18.75 13.3235 19.9389 12.1346 21.4054 12.1346H22C22.4142 12.1346 22.75 11.7988 22.75 11.3846V4C22.75 2.48122 21.5188 1.25 20 1.25Z" stroke="#CCCCCC" stroke-width="2.5" stroke-linecap="round" stroke-linejoin="round"/>
<path fill-rule="evenodd" clip-rule="evenodd" d="M4 7C1.79086 7 0 8.79086 0 11V18.3846C0 19.4892 0.895431 20.3846 2 20.3846H2.59458C3.37077 20.3846 4 21.0138 4 21.79C4 23.0152 5.45842 23.6538 6.35869 22.8227L8.26918 21.0592C8.73907 20.6255 9.36052 20.3846 10 20.3846H13C14.9605 20.3846 16.5915 18.9742 16.9339 17.1128C16.5312 16.9385 16.0937 16.8462 15.6471 16.8462H14.4277C14.233 17.4488 13.6674 17.8846 13 17.8846H10C8.73765 17.8846 7.50928 18.3584 6.57348 19.2222L5.95278 19.7952C5.27172 18.6511 4.02266 17.8846 2.59458 17.8846H2.5V11C2.5 10.1716 3.17157 9.5 4 9.5V7Z" fill="#CCCCCC"/>
</svg>
