<svg width="26" height="25" viewBox="0 0 26 25" fill="none" xmlns="http://www.w3.org/2000/svg">
<path d="M2.2 22.8C2.2 20.8305 3.59638 16.9216 9.1393 16.8028C9.31031 16.7991 9.4838 16.8224 9.64964 16.8642C12.2233 17.5139 13.7819 17.5053 16.3531 16.8628C16.5171 16.8218 16.6851 16.7987 16.854 16.8043C19.3223 16.8862 23.8 18.1639 23.8 22.8" stroke="#CCCCCC" stroke-width="2.5" stroke-linecap="round" stroke-linejoin="round"/>
<path d="M18.95 7.2C18.95 10.4861 16.2861 13.15 13 13.15C9.7139 13.15 7.05 10.4861 7.05 7.2C7.05 3.91391 9.7139 1.25 13 1.25C16.2861 1.25 18.95 3.91391 18.95 7.2Z" stroke="#CCCCCC" stroke-width="2.5" stroke-linecap="round" stroke-linejoin="round"/>
</svg>
