<svg width="24" height="24" viewBox="0 0 24 24" fill="none" xmlns="http://www.w3.org/2000/svg">
<path d="M2 6V4C2 2.89543 2.89543 2 4 2H20C21.1046 2 22 2.89543 22 4V6C22 7.10457 21.1046 8 20 8H4C2.89543 8 2 7.10457 2 6Z" stroke="#CCCCCC" stroke-width="2.5" stroke-linecap="round" stroke-linejoin="round"/>
<path d="M2 16V14C2 12.8954 2.89543 12 4 12H20C21.1046 12 22 12.8954 22 14V16C22 17.1046 21.1046 18 20 18H4C2.89543 18 2 17.1046 2 16Z" stroke="#CCCCCC" stroke-width="2.5" stroke-linecap="round" stroke-linejoin="round"/>
<line x1="2.25" y1="22.75" x2="21.75" y2="22.75" stroke="#CCCCCC" stroke-width="2.5" stroke-linecap="round"/>
</svg>
